<svg width="17" height="15" viewBox="0 0 17 15" fill="none" xmlns="http://www.w3.org/2000/svg">
<path d="M1.49496 1.49497C2.40571 0.584063 3.62725 0.0512733 4.91447 0.00351219C6.20169 -0.0442489 7.45935 0.396552 8.4351 1.23747C9.40998 0.397953 10.666 -0.0423522 11.9517 0.00469871C13.2373 0.0517496 14.4578 0.582684 15.3687 1.49121C16.2796 2.39974 16.8137 3.6188 16.8641 4.90435C16.9146 6.18989 16.4775 7.44704 15.6406 8.42412L9.54442 14.5399C9.26434 14.8201 8.8887 14.984 8.49282 14.9989C8.09693 15.0137 7.71006 14.8784 7.40978 14.62L7.32342 14.5407L1.22803 8.42412C0.391518 7.44789 -0.0457026 6.1919 0.00378549 4.90724C0.0532735 3.62259 0.585823 2.40395 1.49496 1.49497ZM2.60507 2.60508C1.96306 3.24727 1.59298 4.112 1.57164 5.01982C1.55029 5.92763 1.87933 6.8088 2.49045 7.48045L2.60507 7.60135L8.43431 13.4306L12.5976 9.26651L9.82234 6.49124L8.99015 7.32343C8.77148 7.54221 8.51186 7.71577 8.22611 7.83421C7.94036 7.95265 7.63408 8.01365 7.32476 8.01372C6.70006 8.01387 6.10088 7.76584 5.65904 7.32422C5.21721 6.88259 4.9689 6.28353 4.96875 5.65882C4.96861 5.03412 5.21663 4.43495 5.65826 3.99311L7.3085 2.34208C6.65176 1.81794 5.82973 1.54498 4.9899 1.57217C4.15008 1.59936 3.34743 1.92493 2.72597 2.49046L2.60507 2.60508ZM9.26729 4.8253C9.41451 4.67812 9.61416 4.59544 9.82234 4.59544C10.0305 4.59544 10.2302 4.67812 10.3774 4.8253L13.7077 8.15562L14.2636 7.60135C14.9163 6.94905 15.2879 6.06723 15.2989 5.14448C15.31 4.22173 14.9595 3.3313 14.3225 2.66361C13.6854 1.99593 12.8125 1.604 11.8902 1.57164C10.968 1.53928 10.0696 1.86906 9.3874 2.49046L9.26729 2.60508L6.76915 5.10322C6.63307 5.2392 6.55166 5.42042 6.54037 5.61247C6.52908 5.80452 6.5887 5.99403 6.70791 6.14502L6.76915 6.21332C6.90514 6.3494 7.08636 6.43081 7.27841 6.4421C7.47045 6.45339 7.65996 6.39377 7.81096 6.27456L7.87926 6.21332L9.26729 4.8253Z" fill="#FF6600"/>
</svg>
