<svg width="12" height="15" viewBox="0 0 12 15" fill="none" xmlns="http://www.w3.org/2000/svg">
<path d="M0.726616 0H10.8992C11.092 0 11.2768 0.076554 11.413 0.212821C11.5493 0.349088 11.6259 0.533906 11.6259 0.726616V14.6362C11.6259 14.7012 11.6086 14.765 11.5757 14.821C11.5427 14.877 11.4953 14.9231 11.4385 14.9546C11.3817 14.986 11.3174 15.0017 11.2525 14.9999C11.1876 14.9981 11.1243 14.9789 11.0693 14.9443L5.81293 11.6477L0.556588 14.9436C0.501633 14.9781 0.438431 14.9973 0.373555 14.9991C0.308679 15.001 0.244496 14.9854 0.187681 14.954C0.130866 14.9226 0.0834932 14.8766 0.0504873 14.8207C0.0174815 14.7648 4.82988e-05 14.7011 0 14.6362V0.726616C0 0.533906 0.0765542 0.349088 0.212821 0.212821C0.349088 0.076554 0.533906 0 0.726616 0ZM10.1726 1.45323H1.45323V12.6664L5.81293 9.93357L10.1726 12.6664V1.45323Z" fill="#FF6600"/>
</svg>
