<svg width="12" height="10" viewBox="0 0 12 10" fill="none" xmlns="http://www.w3.org/2000/svg">
<path d="M4.34889 1.11111L3.23778 2.22222H1.11111V8.88889H10V2.22222H7.87333L6.76222 1.11111H4.34889ZM3.88889 0H7.22222L8.33333 1.11111H10.5556C10.7029 1.11111 10.8442 1.16964 10.9484 1.27383C11.0526 1.37802 11.1111 1.51932 11.1111 1.66667V9.44444C11.1111 9.59179 11.0526 9.7331 10.9484 9.83728C10.8442 9.94147 10.7029 10 10.5556 10H0.555556C0.408213 10 0.266905 9.94147 0.162718 9.83728C0.0585316 9.7331 0 9.59179 0 9.44444V1.66667C0 1.51932 0.0585316 1.37802 0.162718 1.27383C0.266905 1.16964 0.408213 1.11111 0.555556 1.11111H2.77778L3.88889 0ZM5.55556 8.33333C4.74517 8.33333 3.96798 8.01141 3.39495 7.43838C2.82192 6.86535 2.5 6.08816 2.5 5.27778C2.5 4.46739 2.82192 3.6902 3.39495 3.11717C3.96798 2.54415 4.74517 2.22222 5.55556 2.22222C6.36594 2.22222 7.14313 2.54415 7.71616 3.11717C8.28919 3.6902 8.61111 4.46739 8.61111 5.27778C8.61111 6.08816 8.28919 6.86535 7.71616 7.43838C7.14313 8.01141 6.36594 8.33333 5.55556 8.33333ZM5.55556 7.22222C6.07125 7.22222 6.56583 7.01736 6.93049 6.65271C7.29514 6.28805 7.5 5.79348 7.5 5.27778C7.5 4.76208 7.29514 4.2675 6.93049 3.90285C6.56583 3.53819 6.07125 3.33333 5.55556 3.33333C5.03986 3.33333 4.54528 3.53819 4.18063 3.90285C3.81597 4.2675 3.61111 4.76208 3.61111 5.27778C3.61111 5.79348 3.81597 6.28805 4.18063 6.65271C4.54528 7.01736 5.03986 7.22222 5.55556 7.22222Z" fill="white"/>
</svg>
