<svg width="15" height="15" viewBox="0 0 15 15" fill="none" xmlns="http://www.w3.org/2000/svg">
<path d="M14.4133 14.1993C14.4133 14.4116 14.3289 14.6153 14.1788 14.7655C14.0286 14.9156 13.8249 15 13.6126 15H0.800739C0.58837 15 0.384699 14.9156 0.234531 14.7655C0.0843635 14.6153 1.92746e-07 14.4116 1.92746e-07 14.1993V5.78349C-8.44649e-05 5.66147 0.0277193 5.54104 0.0812878 5.43141C0.134856 5.32177 0.212772 5.22583 0.309085 5.15091L6.715 0.168711C6.85556 0.0593662 7.02857 0 7.20665 0C7.38474 0 7.55774 0.0593662 7.69831 0.168711L14.1042 5.15091C14.2005 5.22583 14.2784 5.32177 14.332 5.43141C14.3856 5.54104 14.4134 5.66147 14.4133 5.78349V14.1993ZM12.8118 13.3985V6.17425L7.20665 1.81503L1.60148 6.17425V13.3985H12.8118Z" fill="black"/>
</svg>
