<svg width="13" height="15" viewBox="0 0 13 15" fill="none" xmlns="http://www.w3.org/2000/svg">
<path d="M6.21321 15L1.81978 10.6066C0.950857 9.73764 0.359114 8.63055 0.119382 7.42531C-0.120349 6.22007 0.00269711 4.97081 0.472962 3.8355C0.943227 2.70019 1.73959 1.72982 2.76134 1.04711C3.7831 0.364396 4.98435 0 6.21321 0C7.44206 0 8.64331 0.364396 9.66507 1.04711C10.6868 1.72982 11.4832 2.70019 11.9534 3.8355C12.4237 4.97081 12.5468 6.22007 12.307 7.42531C12.0673 8.63055 11.4756 9.73764 10.6066 10.6066L6.21321 15ZM9.63047 9.63041C10.3063 8.95455 10.7665 8.09349 10.9529 7.15609C11.1393 6.21869 11.0436 5.24706 10.6778 4.36407C10.312 3.48108 9.69263 2.72637 8.89794 2.19539C8.10325 1.66441 7.16896 1.38101 6.21321 1.38101C5.25745 1.38101 4.32316 1.66441 3.52847 2.19539C2.73378 2.72637 2.11439 3.48108 1.74861 4.36407C1.38284 5.24706 1.28711 6.21869 1.47353 7.15609C1.65996 8.09349 2.12016 8.95455 2.79594 9.63041L6.21321 13.0477L9.63047 9.63041ZM6.21321 7.59386C5.84702 7.59386 5.49583 7.44839 5.2369 7.18946C4.97796 6.93053 4.83249 6.57934 4.83249 6.21315C4.83249 5.84696 4.97796 5.49577 5.2369 5.23684C5.49583 4.9779 5.84702 4.83244 6.21321 4.83244C6.57939 4.83244 6.93058 4.9779 7.18952 5.23684C7.44845 5.49577 7.59392 5.84696 7.59392 6.21315C7.59392 6.57934 7.44845 6.93053 7.18952 7.18946C6.93058 7.44839 6.57939 7.59386 6.21321 7.59386Z" fill="#FF6600"/>
</svg>
