<svg width="17" height="15" viewBox="0 0 17 15" fill="none" xmlns="http://www.w3.org/2000/svg">
<path d="M7.5 15C3.35775 15 0 11.6422 0 7.5C0 3.35775 3.35775 2.11371e-06 7.5 2.11371e-06C8.66449 -0.000872732 9.81314 0.269831 10.8547 0.790608C11.8962 1.31138 12.802 2.06788 13.5 3H11.4675C10.6014 2.23632 9.53338 1.73877 8.39153 1.56705C7.24969 1.39533 6.08255 1.55674 5.03016 2.03191C3.97778 2.50708 3.08486 3.27582 2.45855 4.24589C1.83224 5.21596 1.49915 6.34615 1.49925 7.50083C1.49934 8.65551 1.83262 9.78565 2.45909 10.7556C3.08556 11.7256 3.97861 12.4942 5.03108 12.9692C6.08354 13.4442 7.25071 13.6054 8.39252 13.4335C9.53434 13.2616 10.6023 12.7638 11.4682 12H13.5007C12.8027 12.9322 11.8968 13.6888 10.8551 14.2096C9.81342 14.7303 8.66462 15.001 7.5 15ZM12.75 10.5V8.25H6.75V6.75H12.75V4.5L16.5 7.5L12.75 10.5Z" fill="#FF6600"/>
</svg>
