<svg width="16" height="15" viewBox="0 0 16 15" fill="none" xmlns="http://www.w3.org/2000/svg">
<path d="M3.55263 7.10526C3.08609 7.10526 2.62412 7.01337 2.1931 6.83484C1.76207 6.6563 1.37043 6.39461 1.04054 6.06472C0.710649 5.73483 0.448964 5.34319 0.270428 4.91217C0.0918915 4.48114 0 4.01917 0 3.55263C0 3.08609 0.0918915 2.62412 0.270428 2.1931C0.448964 1.76207 0.710649 1.37043 1.04054 1.04054C1.37043 0.710649 1.76207 0.448964 2.1931 0.270428C2.62412 0.0918916 3.08609 -6.95196e-09 3.55263 0C4.49485 1.40401e-08 5.39847 0.374294 6.06472 1.04054C6.73097 1.70679 7.10526 2.61042 7.10526 3.55263C7.10526 4.49485 6.73097 5.39847 6.06472 6.06472C5.39847 6.73097 4.49485 7.10526 3.55263 7.10526ZM3.94737 15C3.00515 15 2.10153 14.6257 1.43528 13.9595C0.769031 13.2932 0.394737 12.3896 0.394737 11.4474C0.394737 10.5052 0.769031 9.60153 1.43528 8.93528C2.10153 8.26903 3.00515 7.89474 3.94737 7.89474C4.88959 7.89474 5.79321 8.26903 6.45946 8.93528C7.12571 9.60153 7.5 10.5052 7.5 11.4474C7.5 12.3896 7.12571 13.2932 6.45946 13.9595C5.79321 14.6257 4.88959 15 3.94737 15ZM11.8421 7.10526C11.3756 7.10526 10.9136 7.01337 10.4826 6.83484C10.0515 6.6563 9.65991 6.39461 9.33002 6.06472C9.00012 5.73483 8.73844 5.34319 8.5599 4.91217C8.38136 4.48114 8.28947 4.01917 8.28947 3.55263C8.28947 3.08609 8.38136 2.62412 8.5599 2.1931C8.73844 1.76207 9.00012 1.37043 9.33002 1.04054C9.65991 0.710649 10.0515 0.448964 10.4826 0.270428C10.9136 0.0918916 11.3756 -6.95196e-09 11.8421 0C12.7843 1.40401e-08 13.6879 0.374294 14.3542 1.04054C15.0204 1.70679 15.3947 2.61042 15.3947 3.55263C15.3947 4.49485 15.0204 5.39847 14.3542 6.06472C13.6879 6.73097 12.7843 7.10526 11.8421 7.10526ZM11.8421 15C10.8999 15 9.99626 14.6257 9.33002 13.9595C8.66377 13.2932 8.28947 12.3896 8.28947 11.4474C8.28947 10.5052 8.66377 9.60153 9.33002 8.93528C9.99626 8.26903 10.8999 7.89474 11.8421 7.89474C12.7843 7.89474 13.6879 8.26903 14.3542 8.93528C15.0204 9.60153 15.3947 10.5052 15.3947 11.4474C15.3947 12.3896 15.0204 13.2932 14.3542 13.9595C13.6879 14.6257 12.7843 15 11.8421 15ZM3.55263 5.52632C4.07609 5.52632 4.5781 5.31837 4.94824 4.94824C5.31837 4.5781 5.52632 4.07609 5.52632 3.55263C5.52632 3.02918 5.31837 2.52716 4.94824 2.15703C4.5781 1.78689 4.07609 1.57895 3.55263 1.57895C3.02918 1.57895 2.52716 1.78689 2.15703 2.15703C1.78689 2.52716 1.57895 3.02918 1.57895 3.55263C1.57895 4.07609 1.78689 4.5781 2.15703 4.94824C2.52716 5.31837 3.02918 5.52632 3.55263 5.52632ZM3.94737 13.4211C4.47082 13.4211 4.97284 13.2131 5.34297 12.843C5.71311 12.4728 5.92105 11.9708 5.92105 11.4474C5.92105 10.9239 5.71311 10.4219 5.34297 10.0518C4.97284 9.68163 4.47082 9.47368 3.94737 9.47368C3.42391 9.47368 2.9219 9.68163 2.55176 10.0518C2.18163 10.4219 1.97368 10.9239 1.97368 11.4474C1.97368 11.9708 2.18163 12.4728 2.55176 12.843C2.9219 13.2131 3.42391 13.4211 3.94737 13.4211ZM11.8421 5.52632C12.3656 5.52632 12.8676 5.31837 13.2377 4.94824C13.6078 4.5781 13.8158 4.07609 13.8158 3.55263C13.8158 3.02918 13.6078 2.52716 13.2377 2.15703C12.8676 1.78689 12.3656 1.57895 11.8421 1.57895C11.3187 1.57895 10.8166 1.78689 10.4465 2.15703C10.0764 2.52716 9.86842 3.02918 9.86842 3.55263C9.86842 4.07609 10.0764 4.5781 10.4465 4.94824C10.8166 5.31837 11.3187 5.52632 11.8421 5.52632ZM11.8421 13.4211C12.3656 13.4211 12.8676 13.2131 13.2377 12.843C13.6078 12.4728 13.8158 11.9708 13.8158 11.4474C13.8158 10.9239 13.6078 10.4219 13.2377 10.0518C12.8676 9.68163 12.3656 9.47368 11.8421 9.47368C11.3187 9.47368 10.8166 9.68163 10.4465 10.0518C10.0764 10.4219 9.86842 10.9239 9.86842 11.4474C9.86842 11.9708 10.0764 12.4728 10.4465 12.843C10.8166 13.2131 11.3187 13.4211 11.8421 13.4211Z" fill="black"/>
</svg>
