<svg width="13" height="15" viewBox="0 0 13 15" fill="none" xmlns="http://www.w3.org/2000/svg">
<path d="M1.39535 11.1628H11.1628V6.3007C11.1628 3.59163 8.97628 1.39535 6.27907 1.39535C3.58186 1.39535 1.39535 3.59163 1.39535 6.3007V11.1628ZM6.27907 0C9.74651 0 12.5581 2.8207 12.5581 6.3007V12.5581H0V6.3007C0 2.8207 2.81163 0 6.27907 0ZM4.53488 13.2558H8.02326C8.02326 13.7184 7.83949 14.162 7.5124 14.4891C7.1853 14.8162 6.74166 15 6.27907 15C5.81648 15 5.37284 14.8162 5.04574 14.4891C4.71865 14.162 4.53488 13.7184 4.53488 13.2558Z" fill="#FF6600"/>
</svg>
