<svg width="16" height="15" viewBox="0 0 16 15" fill="none" xmlns="http://www.w3.org/2000/svg">
<path d="M0 7.5C0 6.82688 0.0855987 6.17478 0.245902 5.55146C0.675813 5.57406 1.1036 5.47734 1.48198 5.272C1.86035 5.06665 2.17458 4.76068 2.38992 4.3879C2.60526 4.01512 2.71333 3.59006 2.70217 3.1597C2.69102 2.72934 2.56109 2.31044 2.32673 1.94932C3.26749 1.02374 4.4284 0.352897 5.70009 0C5.8954 0.384005 6.19317 0.706475 6.56042 0.931711C6.92768 1.15695 7.3501 1.27616 7.78092 1.27616C8.21174 1.27616 8.63416 1.15695 9.00141 0.931711C9.36867 0.706475 9.66643 0.384005 9.86174 0C11.1334 0.352897 12.2943 1.02374 13.2351 1.94932C13.0005 2.31051 12.8704 2.72956 12.8591 3.16012C12.8479 3.59068 12.956 4.01595 13.1714 4.38889C13.3869 4.76182 13.7013 5.06788 14.08 5.2732C14.4586 5.47852 14.8866 5.5751 15.3167 5.55224C15.477 6.17478 15.5626 6.82688 15.5626 7.5C15.5626 8.17312 15.477 8.82522 15.3167 9.44854C14.8867 9.42579 14.4588 9.52239 14.0804 9.72768C13.7019 9.93296 13.3875 10.2389 13.1721 10.6117C12.9566 10.9845 12.8485 11.4097 12.8596 11.8401C12.8708 12.2705 13.0007 12.6895 13.2351 13.0507C12.2943 13.9763 11.1334 14.6471 9.86174 15C9.66643 14.616 9.36867 14.2935 9.00141 14.0683C8.63416 13.8431 8.21174 13.7238 7.78092 13.7238C7.3501 13.7238 6.92768 13.8431 6.56042 14.0683C6.19317 14.2935 5.8954 14.616 5.70009 15C4.4284 14.6471 3.26749 13.9763 2.32673 13.0507C2.56135 12.6895 2.69148 12.2704 2.70271 11.8399C2.71395 11.4093 2.60586 10.984 2.39039 10.6111C2.17493 10.2382 1.86049 9.93212 1.48187 9.7268C1.10326 9.52148 0.675221 9.4249 0.245123 9.44776C0.0855987 8.826 0 8.17389 0 7.5ZM3.73833 9.83451C4.22857 10.6835 4.36864 11.6601 4.17722 12.5768C4.49471 12.8024 4.83243 12.9978 5.1865 13.1604C5.89982 12.5214 6.82401 12.1684 7.7817 12.169C8.76219 12.169 9.67887 12.5355 10.3769 13.1604C10.731 12.9978 11.0687 12.8024 11.3862 12.5768C11.1896 11.6398 11.3459 10.6633 11.8251 9.83451C12.3034 9.00527 13.0709 8.38179 13.9806 8.08363C14.0166 7.69537 14.0166 7.30463 13.9806 6.91637C13.0706 6.61838 12.3028 5.99488 11.8243 5.16549C11.3451 4.33669 11.1889 3.36016 11.3854 2.42322C11.068 2.19749 10.7301 2.00209 10.3761 1.83959C9.66299 2.47842 8.73911 2.83145 7.7817 2.83098C6.82401 2.83165 5.89982 2.4786 5.1865 1.83959C4.83253 2.00209 4.49462 2.1975 4.17722 2.42322C4.37375 3.36016 4.21747 4.33669 3.73833 5.16549C3.26004 5.99473 2.49246 6.61821 1.5828 6.91637C1.54681 7.30463 1.54681 7.69537 1.5828 8.08363C2.49275 8.38162 3.26063 9.00512 3.73911 9.83451H3.73833ZM7.7817 9.83451C7.16255 9.83451 6.56875 9.58855 6.13095 9.15075C5.69314 8.71294 5.44719 8.11915 5.44719 7.5C5.44719 6.88085 5.69314 6.28706 6.13095 5.84925C6.56875 5.41145 7.16255 5.16549 7.7817 5.16549C8.40085 5.16549 8.99464 5.41145 9.43244 5.84925C9.87025 6.28706 10.1162 6.88085 10.1162 7.5C10.1162 8.11915 9.87025 8.71294 9.43244 9.15075C8.99464 9.58855 8.40085 9.83451 7.7817 9.83451ZM7.7817 8.27817C7.98808 8.27817 8.18601 8.19618 8.33195 8.05025C8.47788 7.90431 8.55987 7.70638 8.55987 7.5C8.55987 7.29362 8.47788 7.09569 8.33195 6.94975C8.18601 6.80381 7.98808 6.72183 7.7817 6.72183C7.57531 6.72183 7.37738 6.80381 7.23145 6.94975C7.08551 7.09569 7.00353 7.29362 7.00353 7.5C7.00353 7.70638 7.08551 7.90431 7.23145 8.05025C7.37738 8.19618 7.57531 8.27817 7.7817 8.27817Z" fill="#FF6600"/>
</svg>
