<svg width="14" height="15" viewBox="0 0 14 15" fill="none" xmlns="http://www.w3.org/2000/svg">
<path d="M2.625 0H10.875C10.9914 0 11.1063 0.0271087 11.2104 0.0791795C11.3146 0.13125 11.4051 0.206853 11.475 0.3L13.5 3V14.25C13.5 14.4489 13.421 14.6397 13.2803 14.7803C13.1397 14.921 12.9489 15 12.75 15H0.75C0.551088 15 0.360322 14.921 0.21967 14.7803C0.0790176 14.6397 0 14.4489 0 14.25V3L2.025 0.3C2.09486 0.206853 2.18545 0.13125 2.28959 0.0791795C2.39373 0.0271087 2.50857 0 2.625 0ZM12 4.5H1.5V13.5H12V4.5ZM11.625 3L10.5 1.5H3L1.875 3H11.625ZM4.5 6V7.5C4.5 8.09674 4.73705 8.66903 5.15901 9.09099C5.58097 9.51295 6.15326 9.75 6.75 9.75C7.34674 9.75 7.91903 9.51295 8.34099 9.09099C8.76295 8.66903 9 8.09674 9 7.5V6H10.5V7.5C10.5 8.49456 10.1049 9.44839 9.40165 10.1517C8.69839 10.8549 7.74456 11.25 6.75 11.25C5.75544 11.25 4.80161 10.8549 4.09835 10.1517C3.39509 9.44839 3 8.49456 3 7.5V6H4.5Z" fill="black"/>
</svg>
